<?xml version="1.0" standalone="no"?>
<!DOCTYPE svg PUBLIC "-//W3C//DTD SVG 20010904//EN"
 "http://www.w3.org/TR/2001/REC-SVG-20010904/DTD/svg10.dtd">
<svg version="1.0" xmlns="http://www.w3.org/2000/svg"
 width="136.000000pt" height="128.000000pt" viewBox="0 0 136.000000 128.000000"
 preserveAspectRatio="xMidYMid meet">

<g transform="translate(0.000000,128.000000) scale(0.100000,-0.100000)"
fill="#000000" stroke="none">
<path d="M680 950 l0 -90 -27 -6 c-160 -35 -275 -94 -355 -183 -75 -83 -92
-140 -93 -301 0 -212 20 -245 62 -100 62 215 148 290 319 277 40 -3 78 -8 84
-12 5 -3 10 -43 10 -90 0 -46 4 -86 9 -89 9 -6 37 12 291 198 96 70 176 133
178 141 3 13 -447 345 -467 345 -7 0 -11 -32 -11 -90z m239 -110 c99 -72 183
-135 186 -140 3 -4 -52 -50 -123 -101 -70 -51 -157 -114 -193 -141 -37 -26
-69 -48 -72 -48 -4 0 -7 35 -9 77 l-3 78 -45 8 c-25 4 -84 6 -132 4 -75 -3
-93 -7 -135 -33 -53 -33 -104 -101 -130 -175 -10 -27 -22 -49 -27 -49 -15 0 3
166 25 225 13 36 41 77 76 116 77 82 162 123 346 163 27 6 27 8 27 82 0 62 3
75 14 71 8 -3 96 -65 195 -137z"/>
</g>
</svg>
